<svg xmlns="http://www.w3.org/2000/svg"  viewBox="0 0 100 100" width="60px" height="60px"><path d="M93.535,67.721c-2.922-4.385-8.949-4.285-10.949-4.285c-0.008,0-0.017,0-0.025,0 c0.175-2.093-0.472-4.296-1.975-6.18l-0.554-0.712c-1.586-2.021-2.031-2.858-2.031-5.278V34.574c0-6.63-0.212-15.709-7.411-22.62 c-6.892-6.548-17.191-7.057-20.183-7.057c-16.019,0-26.342,7.76-29.067,21.85l-0.022,0.115l-0.016,0.117 c-0.616,4.306,3.343,5.816,7.65,6.894c0.027,0.007-1.328,2.264-1.3,2.27c-5.348,4.59-8.385,11.275-8.385,18.944 c0,6.106,1.686,11.251,4.711,15.097c-2.483-1.07-4.94-2.294-7.362-3.685c-0.132-0.077-0.265-0.149-0.434-0.234 c-1.198-0.6-2.533-0.916-3.861-0.916c-3.412,0-6.453,2.017-7.744,5.136c-1.302,3.142-0.539,6.78,1.992,9.311 c0.082,0.08,0.165,0.158,0.249,0.234C19.152,91.131,33.855,97,49.338,97c8.447,0,18.149-2.275,26.418-6.087 c1.491,1.423,3.504,3.076,5.653,3.076c2.095,0,4.117-1.609,5.706-3.03C93.116,85.86,97.352,73.443,93.535,67.721z" opacity=".35"/><path fill="#f2f2f2" d="M91.517,65.902c-2.922-4.385-8.85-4.385-10.849-4.385c-0.008,0-0.017,0-0.025,0 c0.175-2.093-0.472-4.296-1.975-6.18l-0.554-0.712c-1.586-2.021-2.111-2.858-2.111-5.278V32.655c0-6.63-0.132-15.709-7.331-22.62 C61.779,3.486,51.48,3.001,48.488,3.001c-16.019,0-26.342,7.736-29.067,21.826l-0.022,0.115l-0.016,0.117 c-0.616,4.306,1.962,8.066,6.269,9.144c0.027,0.007,0.053,0.013,0.081,0.02c-5.348,4.59-8.385,11.275-8.385,18.944 c0,6.106,1.686,11.251,4.711,15.097c-2.483-1.07-4.94-2.294-7.362-3.685c-0.132-0.077-0.265-0.149-0.434-0.234 c-1.198-0.6-2.533-0.916-3.861-0.916c-3.412,0-6.453,2.017-7.744,5.136c-1.302,3.142-0.539,6.78,1.992,9.311 c0.082,0.08,0.165,0.158,0.249,0.234c12.335,11.102,27.038,16.877,42.521,16.877c8.447,0,18.149-2.182,26.418-5.994 C75.327,90.417,77.34,92,79.49,92c2.095,0,4.117-1.539,5.706-2.96C91.198,83.941,95.334,71.624,91.517,65.902z"/><path fill="#707cc0" d="M73.817,59.176c-2.011-2.614-4.183-4.801-4.183-9.829V32.655c0-7.039-0.232-13.273-5.26-18.099 c-4.022-3.821-10.659-5.342-15.887-5.342c-11.061,0-20.519,4.26-22.932,16.729c-0.201,1.408,0.804,2.011,1.609,2.212l10.256,1.207 c1.006,0,1.609-1.006,1.81-2.011c0.804-4.223,4.028-5.666,8.05-5.666c2.212,0,6.05,0.658,6.05,5.484v6.033 c-6.435,0-12.888,0.257-18.519,2.671c-6.636,2.815-11.23,8.648-11.23,17.295c0,11.061,6.805,16.491,15.654,16.491 c7.441,0,11.912-1.742,17.744-7.574c1.81,2.815,2.568,3.808,5.987,6.825c0.804,0.402,1.81,0.402,2.413-0.201l0,0 c2.011-1.81,6.225-4.706,8.437-6.516C74.823,61.388,74.622,60.181,73.817,59.176z M53.319,43.781L53.319,43.781 c0,4.164,0.156,14.365-10.045,14.365c-6.246,0-6.246-6.246-6.246-6.246c0-9.368,8.38-10.048,16.291-10.048V43.781z"/><path fill="#40396e" d="M80.242,70.004c2.349,0,4.208,0.449,4.573,0.997c0.797,1.196-0.723,9.12-5.107,12.707 c-0.208,0.208-0.441,0.296-0.639,0.296c-0.37,0-0.617-0.305-0.358-0.694c0.996-2.391,3.306-7.814,2.31-9.208 c-0.452-0.633-1.875-0.822-3.536-0.822c-2.002,0-4.351,0.276-5.766,0.384c-0.797,0-0.996-0.598-0.199-1.196 C74.003,70.632,77.465,70.004,80.242,70.004 M10.7,72.006c0.136,0,0.283,0.033,0.429,0.106c10.76,6.177,22.069,8.924,35.619,8.924 c9.166,0,20.723-0.958,30.089-4.943c0.15-0.043,0.298-0.063,0.44-0.063c1.182,0,2,1.365,0.756,2.255 c-8.369,6.177-20.751,8.757-30.913,8.757c-14.546,0-26.824-4.767-36.787-13.734C9.681,72.657,10.093,72.006,10.7,72.006 M80.242,67.004c-1.918,0-6.78,0.297-10.505,3.051c-1.749,1.312-1.945,3.038-1.551,4.22c0.168,0.503,0.444,0.944,0.802,1.306 c-6.239,1.632-13.687,2.456-22.24,2.456c-13.149,0-23.993-2.709-34.125-8.526c-0.05-0.029-0.1-0.056-0.152-0.081 c-0.553-0.277-1.165-0.423-1.771-0.423c-1.514,0-2.858,0.884-3.425,2.252c-0.585,1.411-0.226,3.01,0.935,4.171 c0.037,0.037,0.075,0.073,0.114,0.109c10.694,9.624,23.746,14.504,38.794,14.504c10.503,0,20.78-2.448,28.499-6.677 c-0.048,0.632,0.078,1.269,0.383,1.838c0.595,1.111,1.771,1.801,3.069,1.801c0.964,0,1.89-0.371,2.628-1.048 c3.096-2.582,4.688-6.477,5.364-8.581c0.681-2.121,1.62-5.985,0.251-8.039C86.279,67.789,83.901,67.004,80.242,67.004 L80.242,67.004z"/><path fill="none" stroke="#40396e" stroke-linecap="round" stroke-linejoin="round" stroke-miterlimit="10" stroke-width="3" d="M73.817,59.48c-2.011-2.614-4.323-4.801-4.323-9.829V32.959c0-7.039-0.092-13.273-5.119-18.099 c-4.022-3.821-10.659-5.342-15.887-5.342c-11.061,0-20.519,4.26-22.932,16.729c-0.201,1.408,0.804,2.011,1.609,2.212l10.256,1.035 c1.006,0,1.609-1.006,1.81-2.011c0.804-4.223,4.028-5.966,8.05-5.966c2.212,0,6.219,1.13,6.219,5.956v6.033 c-6.435,0-13.057,0.257-18.688,2.671c-6.636,2.815-11.23,8.648-11.23,17.295c0,11.061,6.805,17.031,15.654,17.031 c7.441,0,11.937-2.157,17.769-7.989c1.81,2.815,2.543,3.682,5.962,6.699c0.804,0.402,1.81,0.402,2.413-0.201l0,0 c2.011-1.81,6.225-4.706,8.437-6.516C74.823,61.692,74.622,60.485,73.817,59.48z M53.449,43.529L53.449,43.529 c0,4.325,0.219,14.977-10.377,14.977c-6.487,0-6.544-6.544-6.544-6.544c0-9.731,8.704-10.437,16.921-10.437V43.529z"/><path fill="#f9b84f" d="M78.032,78.285c-8.369,6.177-20.751,8.757-30.913,8.757c-14.546,0-26.824-4.767-36.787-13.734 c-0.797-0.797,0-1.594,0.797-1.196c10.76,6.177,22.069,8.924,35.619,8.924c9.166,0,20.723-0.958,30.089-4.943 C78.232,75.695,79.427,77.289,78.032,78.285z M81.021,74.101c-0.996-1.395-6.712-0.637-9.302-0.438 c-0.797,0-0.996-0.598-0.199-1.196c4.583-3.387,12.498-2.662,13.295-1.467c0.797,1.196-0.723,9.12-5.107,12.707 c-0.598,0.598-1.395,0.199-0.996-0.399C79.708,80.918,82.018,75.496,81.021,74.101z"/><path fill="#f9b84f" d="M66.141,79.305c12.365-2.563,14.758-7.889,14.758-7.889s2.154,1.411,1.82,1.989 c-2.528,4.382-8.899,7.534-8.899,7.534L66.141,79.305z"/></svg>